Coordinates
version=1
nRows=15
nColumns=19
inDegrees=yes

Units are S.I. units (second, meters, Newtons, ...)
If the header above contains a line with 'inDegrees', this indicates whether rotational values are in degrees (yes) or radians (no).

endheader
time	pelvis_to_ground_rx	pelvis_to_ground_ry	pelvis_to_ground_rz	pelvis_to_ground_tx	pelvis_to_ground_ty	pelvis_to_ground_tz	left_hip_abduction	left_hip_rotation	left_hip_flexion	left_knee_flexion	left_ankle_flexion	left_subtalar_angle	right_hip_abduction	right_hip_rotation	right_hip_flexion	right_knee_flexion	right_ankle_flexion	right_subtalar_angle
      2.98000000	     86.62845440	     -0.23259259	     -0.80527004	      1.54550766	     -0.79186673	      0.71491453	     -6.60723441	      6.34467256	     40.85733825	    -39.78481715	     -2.23706466	     -6.79413738	     11.82230063	      9.59767136	     -5.25298145	    -24.54069810	      4.36688478	     -1.94947140
      2.99000000	     86.97524824	     -0.43695412	     -0.30257789	      1.55907730	     -0.79087448	      0.71201101	     -6.37489187	      5.05398536	     39.53369792	    -37.86575799	     -2.36017910	     -6.63666203	     11.44472597	      8.58375379	     -5.92238460	    -26.41020455	      4.33623980	     -1.90426926
      3.00000000	     87.42800776	     -0.59097144	      0.23322383	      1.57294031	     -0.78983976	      0.70912132	     -6.27372617	      3.68696226	     38.15585160	    -36.41278552	     -2.64224440	     -6.81876999	     10.88132857	      7.34916689	     -6.56516174	    -28.35137606	      4.15553390	     -1.46633866
      3.01000000	     88.03857933	     -0.71847284	      0.44645036	      1.58693300	     -0.78864201	      0.70634218	     -6.38204688	      2.16036440	     37.10123339	    -35.41428834	     -2.80558835	     -7.79714676	      9.95957245	      5.85059404	     -6.71740774	    -30.46940022	      3.82698420	     -0.86057483
      3.02000000	     88.76887226	     -0.78660808	      0.70403122	      1.60109678	     -0.78738613	      0.70368101	     -6.74337460	      0.74414895	     36.07246886	    -34.96109989	     -2.65492246	     -8.36544176	      8.83984639	      4.17296760	     -6.86673245	    -32.60772934	      3.27071425	     -0.75801944
      3.03000000	     89.62730607	     -0.82271409	      0.79877348	      1.61531410	     -0.78601158	      0.70126514	     -7.33781410	     -0.65320935	     35.23371785	    -34.93969784	     -2.33218723	     -9.09335579	      7.49227294	      2.38550639	     -6.76774832	    -34.79456677	      2.42987442	     -0.70130284
      3.04000000	     90.58142621	     -0.81869505	      0.77770926	      1.62951690	     -0.78452932	      0.69912978	     -8.14190365	     -1.97814048	     34.54163904	    -35.29930130	     -2.29609946	    -10.48960111	      5.97247871	      0.49086078	     -6.47629455	    -36.99688993	      1.26942524	     -1.15321736
      3.05000000	     91.61644063	     -0.79864457	      0.73514989	      1.64366910	     -0.78293294	      0.69730672	     -9.20328000	     -3.00702042	     33.91869997	    -36.00045139	     -1.57223633	    -11.08668983	      4.31614123	     -1.48205507	     -6.08538033	    -39.22337543	      0.14826561	     -1.11194936
      3.06000000	     92.68831182	     -0.76361977	      0.61922437	      1.65767569	     -0.78125381	      0.69588778	    -10.41333136	     -3.83238976	     33.35374281	    -36.87118824	     -0.81281332	    -11.79123298	      2.61599583	     -3.44088787	     -5.54406286	    -41.43394165	     -1.18178658	     -1.32755091
      3.07000000	     93.76759999	     -0.72179344	      0.46909715	      1.67147138	     -0.77951441	      0.69492806	    -11.72751835	     -4.40860675	     32.77756547	    -37.78401177	     -0.05401375	    -12.44767766	      0.93552099	     -5.33591641	     -4.88373392	    -43.61695440	     -2.58975331	     -1.75306321
      3.08000000	     94.81511833	     -0.67567353	      0.25156245	      1.68497331	     -0.77774993	      0.69450208	    -13.06245538	     -4.77631692	     32.18751612	    -38.60483821	      0.71732073	    -12.99439105	     -0.64135737	     -7.11982509	     -4.05292661	    -45.75578181	     -4.04387725	     -2.35604737
      3.09000000	     95.78773056	     -0.63695893	     -0.11813461	      1.69809118	     -0.77599944	      0.69469707	    -14.32564540	     -4.99277740	     31.64143981	    -39.21123509	      1.41142118	    -13.28972106	     -2.00369949	     -8.71774691	     -2.94171249	    -47.82720140	     -5.67250681	     -3.66958270
      3.10000000	     96.68296220	     -0.59889322	     -0.41122154	      1.71084838	     -0.77426444	      0.69546311	    -15.52717195	     -4.97534608	     30.90270182	    -39.55422876	      2.08530907	    -13.41677420	     -3.19141900	    -10.17790408	     -1.78680891	    -49.82586953	     -6.84195735	     -4.33261193
      3.11000000	     97.46625401	     -0.56777025	     -0.70997325	      1.72319365	     -0.77257807	      0.69683821	    -16.58610814	     -4.81371580	     30.04215196	    -39.56834221	      2.68199196	    -13.46421214	     -4.12720198	    -11.44407096	     -0.48917358	    -51.72403073	     -7.78307022	     -4.78330687
      3.12000000	     98.09804282	     -0.54465285	     -1.16323766	      1.73507170	     -0.77097875	      0.69885777	    -17.41769124	     -4.64836053	     29.20678884	    -39.22336218	      3.17212364	    -13.26551903	     -4.70757043	    -12.47737629	      1.12182562	    -53.49205845	     -8.58896187	     -5.44887193
